<svg width="50" height="45" viewBox="0 0 50 45" fill="none" xmlns="http://www.w3.org/2000/svg">
<path opacity="0.48" d="M27.2857 33C29.5321 36.7457 32.7155 39.8417 36.5223 41.9829L39.8571 43.8571V44.4286H10.1429V43.8571L13.4777 41.9829C17.2845 39.8417 20.4679 36.7457 22.7143 33M1 26.1429H49M49 1H1V33H49V1Z" stroke="black"/>
<circle cx="11.4482" cy="8.48984" r="3.88571" fill="white"/>
<circle cx="11.4482" cy="8.48984" r="4.38571" stroke="black" stroke-opacity="0.25"/>
<mask id="path-4-outside-1_55_42" maskUnits="userSpaceOnUse" x="10.1891" y="3.60413" width="7" height="6" fill="black">
<rect fill="white" x="10.1891" y="3.60413" width="7" height="6"/>
<path fill-rule="evenodd" clip-rule="evenodd" d="M15.3339 8.48984C15.3339 6.34382 13.5942 4.60413 11.4482 4.60413C11.3611 4.60413 11.2748 4.60699 11.1891 4.61262V8.48984H15.3339Z"/>
</mask>
<path fill-rule="evenodd" clip-rule="evenodd" d="M15.3339 8.48984C15.3339 6.34382 13.5942 4.60413 11.4482 4.60413C11.3611 4.60413 11.2748 4.60699 11.1891 4.61262V8.48984H15.3339Z" fill="white"/>
<path d="M15.3339 8.48984V9.48984H16.3339V8.48984H15.3339ZM11.1891 4.61262L11.1235 3.61478L10.1891 3.67628V4.61262H11.1891ZM11.1891 8.48984H10.1891V9.48984H11.1891V8.48984ZM11.4482 5.60413C13.0419 5.60413 14.3339 6.8961 14.3339 8.48984H16.3339C16.3339 5.79153 14.1465 3.60413 11.4482 3.60413V5.60413ZM11.2548 5.61046C11.3186 5.60627 11.3831 5.60413 11.4482 5.60413V3.60413C11.3392 3.60413 11.2309 3.60771 11.1235 3.61478L11.2548 5.61046ZM12.1891 8.48984V4.61262H10.1891V8.48984H12.1891ZM15.3339 7.48984H11.1891V9.48984H15.3339V7.48984Z" fill="#A8DEB9" mask="url(#path-4-outside-1_55_42)"/>
<line x1="5.88385" y1="19.6042" x2="18.3839" y2="19.6042" stroke="#FF7716"/>
<line x1="5.88385" y1="17.1041" x2="18.3839" y2="17.1041" stroke="#FF7716"/>
<line x1="5.88385" y1="22.1041" x2="18.3839" y2="22.1041" stroke="#FF7716"/>
<rect x="21.5625" y="16.6041" width="2" height="7" rx="1" fill="#D9D9D9"/>
<rect x="27.5625" y="12.6041" width="2" height="11" rx="1" fill="#D9D9D9"/>
<rect x="33.5625" y="17.6041" width="2" height="6" rx="1" fill="#D9D9D9"/>
<rect x="39.5625" y="10.6041" width="2" height="13" rx="1" fill="#D9D9D9"/>
<path d="M22.5625 11.1756L28.2898 6.88984L34.8352 12.6041L40.5625 4.60413" stroke="#568CEE"/>
</svg>
