<svg width="110" height="110" viewBox="0 0 110 110" fill="none" xmlns="http://www.w3.org/2000/svg">
<circle cx="55" cy="55" r="54" stroke="#40C575" stroke-width="2"/>
<path fill-rule="evenodd" clip-rule="evenodd" d="M82.3733 42.5225C79.4943 42.635 76.8893 42.4455 74.5202 42.0334C68.8507 40.9355 62.955 38.146 57 33.0497C63.5516 29.4509 73.8276 24.5812 84.4503 21C85.4168 28.9161 85.9028 36.441 85.9999 42.07C84.8079 42.2877 83.5984 42.4409 82.3733 42.5225Z" fill="#FF7716"/>
<path d="M87.3377 64.4471L52.2652 55.406L58.9049 80.6365L78.6934 84.929L87.3377 64.4471Z" fill="#568CEE"/>
<path fill-rule="evenodd" clip-rule="evenodd" d="M26.7635 51C37.9231 55.1018 45.8839 65.8249 45.8839 78.4074C45.8839 78.5914 45.8822 78.775 45.8788 78.9583C43.9766 79.6321 41.9226 79.9998 39.78 79.9998C29.9604 79.9998 22 72.277 22 62.7505C22 58.2105 23.808 54.0801 26.7635 51Z" fill="#FF5A5A" fill-opacity="0.3"/>
<path d="M14.7674 43.7934L48.3731 18C50.9777 22.5114 51.4797 29.4899 51.4051 32.4153L14.7674 43.7934Z" fill="#FD55C2" fill-opacity="0.3"/>
</svg>
