<svg width="85" height="109" viewBox="0 0 85 109" fill="none" xmlns="http://www.w3.org/2000/svg">
<mask id="path-1-inside-1_35_35" fill="white">
<path d="M70 10.96C70.0004 12.5512 69.6211 14.1196 68.8936 15.5348C68.1661 16.95 67.1113 18.1711 65.817 19.0967C64.5227 20.0224 63.0262 20.6258 61.4518 20.8568C59.8774 21.0878 58.2707 20.9398 56.765 20.425L50.345 30.14C53.2 32.86 54.985 36.695 55 40.95L60.85 41.96C61.8322 39.7331 63.5929 37.9409 65.802 36.9193C68.0111 35.8977 70.517 35.7168 72.8499 36.4106C75.1828 37.1043 77.1826 38.6251 78.4745 40.6878C79.7664 42.7506 80.2617 45.2136 79.8674 47.6154C79.4732 50.0171 78.2166 52.1927 76.3332 53.7342C74.4497 55.2758 72.0687 56.0775 69.6364 55.9891C67.2041 55.9008 64.8876 54.9284 63.1209 53.2542C61.3543 51.58 60.2589 49.319 60.04 46.895L54.19 45.88C52.9573 49.47 50.4094 52.4592 47.06 54.245L49.28 61.03C49.52 61.01 49.76 61 50 61C52.4029 61.0008 54.7251 61.8668 56.5418 63.4395C58.3585 65.0122 59.5482 67.1865 59.8931 69.5645C60.2381 71.9425 59.7152 74.3652 58.4203 76.3892C57.1253 78.4133 55.1448 79.9034 52.8412 80.5869C50.5376 81.2704 48.0648 81.1016 45.8755 80.1113C43.6862 79.121 41.9266 77.3755 40.9188 75.1942C39.911 73.0129 39.7223 70.5416 40.3873 68.2326C41.0522 65.9236 42.5264 63.9312 44.54 62.62L42.315 55.82C39.6094 56.2419 36.8399 55.9151 34.3068 54.8751C31.7736 53.835 29.5736 52.1214 27.945 49.92L19.77 53.86C19.9233 54.55 20 55.2633 20 56C20.0007 58.3412 19.1799 60.6085 17.6807 62.4067C16.1814 64.205 14.0987 65.4201 11.7955 65.8405C9.49234 66.2609 7.11467 65.8598 5.07682 64.7072C3.03897 63.5546 1.47014 61.7234 0.643718 59.5329C-0.182709 57.3424 -0.214344 54.9313 0.554325 52.7199C1.32299 50.5084 2.84323 48.6367 4.85014 47.431C6.85704 46.2253 9.22338 45.762 11.5368 46.1218C13.8502 46.4816 15.9641 47.6417 17.51 49.4L25.675 45.465C24.9003 42.9781 24.7866 40.3323 25.3451 37.788C25.9036 35.2438 27.115 32.8889 28.86 30.955L24.185 25.085C21.9741 26.1028 19.4679 26.2793 17.1361 25.5814C14.8044 24.8836 12.8072 23.3593 11.519 21.2942C10.2307 19.2292 9.7398 16.7652 10.1383 14.3641C10.5368 11.963 11.7973 9.78969 13.6835 8.25149C15.5697 6.71328 17.9522 5.91581 20.3844 6.00856C22.8166 6.10131 25.1314 7.0779 26.895 8.75529C28.6587 10.4327 29.75 12.6957 29.9644 15.1202C30.1789 17.5446 29.5018 19.9641 28.06 21.925L32.78 27.85C34.92 26.675 37.38 26 40 26C42.21 26 44.31 26.475 46.2 27.335L52.59 17.67C51.4995 16.4667 50.7185 15.0159 50.3145 13.443C49.9104 11.8701 49.8955 10.2225 50.271 8.64262C50.6465 7.0627 51.4012 5.598 52.4697 4.37512C53.5382 3.15225 54.8885 2.208 56.4037 1.62399C57.919 1.03998 59.5537 0.833792 61.1666 1.02324C62.7794 1.21269 64.3219 1.79207 65.6606 2.71131C66.9993 3.63055 68.094 4.86199 68.8501 6.29918C69.6061 7.73637 70.0008 9.33607 70 10.96ZM65 10.96C65 9.63392 64.4732 8.36216 63.5355 7.42447C62.5979 6.48679 61.3261 5.96001 60 5.96001C58.6739 5.96001 57.4021 6.48679 56.4645 7.42447C55.5268 8.36216 55 9.63392 55 10.96C55 12.2861 55.5268 13.5579 56.4645 14.4955C57.4021 15.4332 58.6739 15.96 60 15.96C61.3261 15.96 62.5979 15.4332 63.5355 14.4955C64.4732 13.5579 65 12.2861 65 10.96ZM20 21.005C21.3261 21.005 22.5979 20.4782 23.5355 19.5405C24.4732 18.6029 25 17.3311 25 16.005C25 14.6789 24.4732 13.4072 23.5355 12.4695C22.5979 11.5318 21.3261 11.005 20 11.005C18.6739 11.005 17.4021 11.5318 16.4645 12.4695C15.5268 13.4072 15 14.6789 15 16.005C15 17.3311 15.5268 18.6029 16.4645 19.5405C17.4021 20.4782 18.6739 21.005 20 21.005ZM40 51.005C42.6522 51.005 45.1957 49.9514 47.0711 48.0761C48.9464 46.2007 50 43.6572 50 41.005C50 38.3528 48.9464 35.8093 47.0711 33.9339C45.1957 32.0586 42.6522 31.005 40 31.005C37.3478 31.005 34.8043 32.0586 32.9289 33.9339C31.0536 35.8093 30 38.3528 30 41.005C30 43.6572 31.0536 46.2007 32.9289 48.0761C34.8043 49.9514 37.3478 51.005 40 51.005ZM15 56.005C15 54.6789 14.4732 53.4072 13.5355 52.4695C12.5979 51.5318 11.3261 51.005 10 51.005C8.67392 51.005 7.40215 51.5318 6.46447 52.4695C5.52678 53.4072 5 54.6789 5 56.005C5 57.3311 5.52678 58.6029 6.46447 59.5405C7.40215 60.4782 8.67392 61.005 10 61.005C11.3261 61.005 12.5979 60.4782 13.5355 59.5405C14.4732 58.6029 15 57.3311 15 56.005ZM55 71.005C55 69.6789 54.4732 68.4072 53.5355 67.4695C52.5979 66.5318 51.3261 66.005 50 66.005C48.6739 66.005 47.4021 66.5318 46.4645 67.4695C45.5268 68.4072 45 69.6789 45 71.005C45 72.3311 45.5268 73.6029 46.4645 74.5405C47.4021 75.4782 48.6739 76.005 50 76.005C51.3261 76.005 52.5979 75.4782 53.5355 74.5405C54.4732 73.6029 55 72.3311 55 71.005ZM70 51.005C71.3261 51.005 72.5979 50.4782 73.5355 49.5405C74.4732 48.6029 75 47.3311 75 46.005C75 44.6789 74.4732 43.4072 73.5355 42.4695C72.5979 41.5318 71.3261 41.005 70 41.005C68.6739 41.005 67.4021 41.5318 66.4645 42.4695C65.5268 43.4072 65 44.6789 65 46.005C65 47.3311 65.5268 48.6029 66.4645 49.5405C67.4021 50.4782 68.6739 51.005 70 51.005Z"/>
</mask>
<path d="M70 10.96C70.0004 12.5512 69.6211 14.1196 68.8936 15.5348C68.1661 16.95 67.1113 18.1711 65.817 19.0967C64.5227 20.0224 63.0262 20.6258 61.4518 20.8568C59.8774 21.0878 58.2707 20.9398 56.765 20.425L50.345 30.14C53.2 32.86 54.985 36.695 55 40.95L60.85 41.96C61.8322 39.7331 63.5929 37.9409 65.802 36.9193C68.0111 35.8977 70.517 35.7168 72.8499 36.4106C75.1828 37.1043 77.1826 38.6251 78.4745 40.6878C79.7664 42.7506 80.2617 45.2136 79.8674 47.6154C79.4732 50.0171 78.2166 52.1927 76.3332 53.7342C74.4497 55.2758 72.0687 56.0775 69.6364 55.9891C67.2041 55.9008 64.8876 54.9284 63.1209 53.2542C61.3543 51.58 60.2589 49.319 60.04 46.895L54.19 45.88C52.9573 49.47 50.4094 52.4592 47.06 54.245L49.28 61.03C49.52 61.01 49.76 61 50 61C52.4029 61.0008 54.7251 61.8668 56.5418 63.4395C58.3585 65.0122 59.5482 67.1865 59.8931 69.5645C60.2381 71.9425 59.7152 74.3652 58.4203 76.3892C57.1253 78.4133 55.1448 79.9034 52.8412 80.5869C50.5376 81.2704 48.0648 81.1016 45.8755 80.1113C43.6862 79.121 41.9266 77.3755 40.9188 75.1942C39.911 73.0129 39.7223 70.5416 40.3873 68.2326C41.0522 65.9236 42.5264 63.9312 44.54 62.62L42.315 55.82C39.6094 56.2419 36.8399 55.9151 34.3068 54.8751C31.7736 53.835 29.5736 52.1214 27.945 49.92L19.77 53.86C19.9233 54.55 20 55.2633 20 56C20.0007 58.3412 19.1799 60.6085 17.6807 62.4067C16.1814 64.205 14.0987 65.4201 11.7955 65.8405C9.49234 66.2609 7.11467 65.8598 5.07682 64.7072C3.03897 63.5546 1.47014 61.7234 0.643718 59.5329C-0.182709 57.3424 -0.214344 54.9313 0.554325 52.7199C1.32299 50.5084 2.84323 48.6367 4.85014 47.431C6.85704 46.2253 9.22338 45.762 11.5368 46.1218C13.8502 46.4816 15.9641 47.6417 17.51 49.4L25.675 45.465C24.9003 42.9781 24.7866 40.3323 25.3451 37.788C25.9036 35.2438 27.115 32.8889 28.86 30.955L24.185 25.085C21.9741 26.1028 19.4679 26.2793 17.1361 25.5814C14.8044 24.8836 12.8072 23.3593 11.519 21.2942C10.2307 19.2292 9.7398 16.7652 10.1383 14.3641C10.5368 11.963 11.7973 9.78969 13.6835 8.25149C15.5697 6.71328 17.9522 5.91581 20.3844 6.00856C22.8166 6.10131 25.1314 7.0779 26.895 8.75529C28.6587 10.4327 29.75 12.6957 29.9644 15.1202C30.1789 17.5446 29.5018 19.9641 28.06 21.925L32.78 27.85C34.92 26.675 37.38 26 40 26C42.21 26 44.31 26.475 46.2 27.335L52.59 17.67C51.4995 16.4667 50.7185 15.0159 50.3145 13.443C49.9104 11.8701 49.8955 10.2225 50.271 8.64262C50.6465 7.0627 51.4012 5.598 52.4697 4.37512C53.5382 3.15225 54.8885 2.208 56.4037 1.62399C57.919 1.03998 59.5537 0.833792 61.1666 1.02324C62.7794 1.21269 64.3219 1.79207 65.6606 2.71131C66.9993 3.63055 68.094 4.86199 68.8501 6.29918C69.6061 7.73637 70.0008 9.33607 70 10.96ZM65 10.96C65 9.63392 64.4732 8.36216 63.5355 7.42447C62.5979 6.48679 61.3261 5.96001 60 5.96001C58.6739 5.96001 57.4021 6.48679 56.4645 7.42447C55.5268 8.36216 55 9.63392 55 10.96C55 12.2861 55.5268 13.5579 56.4645 14.4955C57.4021 15.4332 58.6739 15.96 60 15.96C61.3261 15.96 62.5979 15.4332 63.5355 14.4955C64.4732 13.5579 65 12.2861 65 10.96ZM20 21.005C21.3261 21.005 22.5979 20.4782 23.5355 19.5405C24.4732 18.6029 25 17.3311 25 16.005C25 14.6789 24.4732 13.4072 23.5355 12.4695C22.5979 11.5318 21.3261 11.005 20 11.005C18.6739 11.005 17.4021 11.5318 16.4645 12.4695C15.5268 13.4072 15 14.6789 15 16.005C15 17.3311 15.5268 18.6029 16.4645 19.5405C17.4021 20.4782 18.6739 21.005 20 21.005ZM40 51.005C42.6522 51.005 45.1957 49.9514 47.0711 48.0761C48.9464 46.2007 50 43.6572 50 41.005C50 38.3528 48.9464 35.8093 47.0711 33.9339C45.1957 32.0586 42.6522 31.005 40 31.005C37.3478 31.005 34.8043 32.0586 32.9289 33.9339C31.0536 35.8093 30 38.3528 30 41.005C30 43.6572 31.0536 46.2007 32.9289 48.0761C34.8043 49.9514 37.3478 51.005 40 51.005ZM15 56.005C15 54.6789 14.4732 53.4072 13.5355 52.4695C12.5979 51.5318 11.3261 51.005 10 51.005C8.67392 51.005 7.40215 51.5318 6.46447 52.4695C5.52678 53.4072 5 54.6789 5 56.005C5 57.3311 5.52678 58.6029 6.46447 59.5405C7.40215 60.4782 8.67392 61.005 10 61.005C11.3261 61.005 12.5979 60.4782 13.5355 59.5405C14.4732 58.6029 15 57.3311 15 56.005ZM55 71.005C55 69.6789 54.4732 68.4072 53.5355 67.4695C52.5979 66.5318 51.3261 66.005 50 66.005C48.6739 66.005 47.4021 66.5318 46.4645 67.4695C45.5268 68.4072 45 69.6789 45 71.005C45 72.3311 45.5268 73.6029 46.4645 74.5405C47.4021 75.4782 48.6739 76.005 50 76.005C51.3261 76.005 52.5979 75.4782 53.5355 74.5405C54.4732 73.6029 55 72.3311 55 71.005ZM70 51.005C71.3261 51.005 72.5979 50.4782 73.5355 49.5405C74.4732 48.6029 75 47.3311 75 46.005C75 44.6789 74.4732 43.4072 73.5355 42.4695C72.5979 41.5318 71.3261 41.005 70 41.005C68.6739 41.005 67.4021 41.5318 66.4645 42.4695C65.5268 43.4072 65 44.6789 65 46.005C65 47.3311 65.5268 48.6029 66.4645 49.5405C67.4021 50.4782 68.6739 51.005 70 51.005Z" fill="#848484" stroke="#FFFCFC" stroke-width="2" mask="url(#path-1-inside-1_35_35)"/>
<path d="M67.5 102.167H76.5M81 73C81.7956 73 82.5587 73.4097 83.1213 74.139C83.6839 74.8683 84 75.8575 84 76.8889V104.111C84 105.143 83.6839 106.132 83.1213 106.861C82.5587 107.59 81.7956 108 81 108H63C62.2044 108 61.4413 107.59 60.8787 106.861C60.3161 106.132 60 105.143 60 104.111V76.8889C60 75.8575 60.3161 74.8683 60.8787 74.139C61.4413 73.4097 62.2044 73 63 73H81Z" stroke="#383233" stroke-width="2" stroke-linecap="round" stroke-linejoin="round"/>
<circle cx="40" cy="41" r="12.5" stroke="#B96CB9" stroke-width="3"/>
<rect x="66" y="101" width="12" height="3" rx="1.5" fill="#40C575"/>
</svg>
